<?xml version="1.0" encoding="UTF-8" standalone="no"?>
<svg width="232px" height="31px" viewBox="0 0 232 31" version="1.1" xmlns="http://www.w3.org/2000/svg" xmlns:xlink="http://www.w3.org/1999/xlink">
    <title>Payment Icon</title>
    <desc>TenderJO</desc>
    <defs></defs>
    <g id="-" stroke="none" stroke-width="1" fill="none" fill-rule="evenodd">
        <g id="01-Desktop-Home" transform="translate(-1023.000000, -4393.000000)">
            <g id="Group-24" transform="translate(0.000000, 3729.000000)">
                <g id="Group-8" transform="translate(1024.000000, 665.000000)">
                    <g id="Group-7">
                      <g id="AmericanExpress-light-Copy" transform="translate(180.994764, 0.000000)">
                        <rect id="Rectangle" stroke="#E9E9E9" fill="#FFFFFF" x="0" y="0" width="49.0052356" height="29" rx="4"></rect>
                        <g id="Page-1" transform="translate(19.602094, 6.692308)" fill="#51E56E">
                          <path d="M3.82563332,16.1613234 C3.65549507,16.1613234 3.54169023,16.0699636 3.54169023,15.905406 L3.54169023,14.4062251 C1.8972102,14.1871818 0.40409062,12.8888824 0.0262585311,11.4628995 C-0.030643892,11.2433058 -0.0118660924,11.0792985 0.253299199,10.9510646 L1.59505833,10.3841938 C1.99166822,10.2196361 2.18058427,10.2746721 2.33194471,10.6769853 C2.6158878,11.3346656 3.35277418,12.4502455 4.92214301,12.4502455 C6.37713797,12.4502455 7.07646875,11.8833746 7.07646875,10.9879388 C7.07646875,9.98188056 5.84794543,9.61644147 3.95764694,8.84868918 C1.78397438,7.97086487 0.536673266,7.07542904 0.536673266,5.26529477 C0.536673266,3.51019652 1.65196076,2.26693312 3.54169023,1.81013426 L3.54169023,0.23775555 C3.54169023,0.0731978891 3.6936197,0 3.84441112,0 L5.94240346,0 C6.15066632,0 6.26390215,0.0913597713 6.26390215,0.255917432 L6.26390215,1.84645803 C8.07852042,2.10237546 9.30704373,3.29060285 9.77990287,4.3511467 C9.89313869,4.62577637 9.91191649,4.89985569 9.6467512,4.99121546 L8.55137955,5.37481643 C8.07852042,5.52121221 7.75702173,5.75896776 7.49242546,5.24713289 C7.09524655,4.44250647 6.32080457,3.74795207 5.03537883,3.74795207 C3.7123975,3.74795207 3.16385814,4.3511467 3.16385814,5.02753922 C3.16385814,5.83216564 3.93886914,6.10624496 6.16944412,7.03855491 C8.38067228,7.97086487 9.76112507,8.8305273 9.76112507,10.6219493 C9.76112507,12.3588857 8.43700568,13.9131025 6.26390215,14.3880633 L6.26390215,15.905406 C6.26390215,16.0881255 6.13188852,16.1613234 5.99873685,16.1613234 L3.82563332,16.1613234 Z" id="Fill-5"></path>
                        </g>
                      </g>
                        <g id="MasterCard-light" transform="translate(60.560209, 0.000000)">
                            <rect id="Rectangle" stroke="#E9E9E9" fill="#FFFFFF" x="0" y="0" width="49.0052356" height="29" rx="4"></rect>
                            <path d="M27.5059629,14.734611 C27.5059629,19.9441013 23.2245467,24.1666667 17.9427883,24.1666667 C12.6608787,24.1666667 8.37916021,19.9441013 8.37916021,14.734611 C8.37916021,9.52526989 12.6608787,5.30225729 17.9427883,5.30225729 C23.2245467,5.30225729 27.5059629,9.52526989 27.5059629,14.734611" id="Fill-333" fill="#CC0000"></path>
                            <path d="M30.7822007,5.30225729 C28.3105893,5.30225729 26.0593282,6.2268751 24.3618144,7.74370741 C24.016478,8.05285739 23.6941136,8.38675129 23.3965348,8.74225887 L25.3287564,8.74225887 C25.5926328,9.05915996 25.835804,9.39230856 26.0578168,9.74125751 L22.6673233,9.74125751 C22.4645042,10.0618851 22.2801233,10.3950337 22.1162963,10.7402561 L26.6085416,10.7402561 C26.7620916,11.0635668 26.8972035,11.3965664 27.0135751,11.7388076 L21.7112627,11.7388076 C21.6009364,12.064056 21.5078392,12.3973537 21.4334823,12.73721 L27.2910533,12.73721 C27.4313037,13.3811482 27.5059629,14.0492342 27.5059629,14.734611 C27.5059629,15.781756 27.3329169,16.7896982 27.0135751,17.7310107 L21.7112627,17.7310107 C21.8276343,18.0729538 21.9627463,18.4064006 22.115994,18.7301584 L26.6085416,18.7301584 C26.4444123,19.0744865 26.2609381,19.4079332 26.05691,19.729008 L22.6673233,19.729008 C22.8884293,20.0769135 23.1320539,20.4105093 23.3965348,20.7269632 L25.3281519,20.7269632 C25.0311777,21.0827689 24.708511,21.4166628 24.3621167,21.7258128 C26.0594793,23.2426451 28.3105893,24.1666667 30.7822007,24.1666667 C36.063808,24.1666667 40.3453754,19.9441013 40.3453754,14.734611 C40.3453754,9.52571707 36.063808,5.30225729 30.7822007,5.30225729" id="Fill-334" fill="#FF9900"></path>
                            <path d="M15.7095118,15.7672972 C15.6005457,15.7550743 15.5524858,15.7511987 15.4776755,15.7511987 C14.8891678,15.7511987 14.591589,15.9503426 14.591589,16.3437114 C14.591589,16.5859335 14.7368268,16.7399122 14.9635247,16.7399122 C15.3865429,16.7399122 15.691376,16.342817 15.7095118,15.7672972 L15.7095118,15.7672972 Z M16.4647181,17.5010115 L15.6041729,17.5010115 L15.6239712,17.0978048 C15.3616062,17.4161965 15.0114335,17.5682374 14.5358213,17.5682374 C13.9733083,17.5682374 13.5874685,17.1350697 13.5874685,16.5055903 C13.5874685,15.5580173 14.2583431,15.0054527 15.4101195,15.0054527 C15.5281535,15.0054527 15.6789832,15.016185 15.83344,15.0354137 C15.86548,14.9069241 15.8739434,14.8523683 15.8739434,14.7830555 C15.8739434,14.5254802 15.6931896,14.4288894 15.2082073,14.4288894 C14.7002529,14.4238214 14.2813152,14.5485844 14.1091759,14.6043328 C14.1200574,14.5396408 14.2532046,13.7292028 14.2532046,13.7292028 C14.7703781,13.5792487 15.111634,13.5232022 15.4956602,13.5232022 C16.3873385,13.5232022 16.8596258,13.9179125 16.8585678,14.6641058 C16.8603814,14.864293 16.826679,15.1103907 16.7745385,15.4350429 C16.6844639,15.9984889 16.491015,17.2069165 16.4647181,17.5010115 L16.4647181,17.5010115 Z" id="Fill-336" fill="#000066"></path>
                            <polyline id="Fill-337" fill="#000066" points="13.1529642 17.5010115 12.1145368 17.5010115 12.7096943 13.8234086 11.3813958 17.5010115 10.6739473 17.5010115 10.5864419 13.8439789 9.96136031 17.5010115 8.98958204 17.5010115 9.8013116 12.7166398 11.2943439 12.7166398 11.3845696 15.3946477 12.2954417 12.7166398 13.9559281 12.7166398 13.1529642 17.5010115"></polyline>
                            <path d="M32.0650085,15.7672972 C31.9560424,15.7550743 31.9085869,15.7511987 31.8339278,15.7511987 C31.2449667,15.7511987 30.9476902,15.9503426 30.9476902,16.3437114 C30.9476902,16.5859335 31.0923234,16.7399122 31.3196258,16.7399122 C31.7423418,16.7399122 32.047326,16.342817 32.0650085,15.7672972 L32.0650085,15.7672972 Z M32.8206681,17.5010115 L31.9604252,17.5010115 L31.9799212,17.0978048 C31.7175562,17.4161965 31.3675347,17.5682374 30.8922248,17.5682374 C30.3289561,17.5682374 29.9435697,17.1350697 29.9435697,16.5055903 C29.9435697,15.5580173 30.6147466,15.0054527 31.7662207,15.0054527 C31.8841036,15.0054527 32.034631,15.016185 32.1892389,15.0354137 C32.22143,14.9069241 32.2297423,14.8523683 32.2297423,14.7830555 C32.2297423,14.5254802 32.0489885,14.4288894 31.5640062,14.4288894 C31.0560518,14.4238214 30.6372652,14.5485844 30.4645214,14.6043328 C30.4760075,14.5396408 30.6094569,13.7292028 30.6094569,13.7292028 C31.1263281,13.5792487 31.4678863,13.5232022 31.8513079,13.5232022 C32.7435908,13.5232022 33.2152735,13.9179125 33.2143668,14.6641058 C33.2161803,14.864293 33.1827802,15.1103907 33.1303374,15.4350429 C33.040565,15.9984889 32.8466628,17.2069165 32.8206681,17.5010115 L32.8206681,17.5010115 Z" id="Fill-338" fill="#000066"></path>
                            <path d="M21.0787756,17.4418347 C20.7944965,17.5300781 20.5730882,17.5682374 20.3327885,17.5682374 C19.8021643,17.5682374 19.5124444,17.2674348 19.5124444,16.7133796 C19.5050389,16.5413646 19.588766,16.0889682 19.6546595,15.6763707 C19.71481,15.3128139 20.1050327,13.0211689 20.1050327,13.0211689 L21.1368103,13.0211689 L21.0163582,13.6101041 L21.6397773,13.6101041 L21.4990735,14.5453051 L20.8735385,14.5453051 C20.7536909,15.2850888 20.5827607,16.2068745 20.580796,16.3291035 C20.580796,16.529738 20.6893087,16.6173851 20.9364094,16.6173851 C21.0547457,16.6173851 21.1463316,16.6054603 21.2163057,16.5807164 L21.0787756,17.4418347" id="Fill-339" fill="#000066"></path>
                            <path d="M24.2428736,17.4103831 C23.8883181,17.517259 23.5466088,17.5694299 23.1840433,17.5682374 C22.0286398,17.5667468 21.4263791,16.9719983 21.4263791,15.8324363 C21.4263791,14.502525 22.1924668,13.5232022 23.2327078,13.5232022 C24.0834294,13.5232022 24.6270509,14.0714441 24.6270509,14.9309228 C24.6270509,15.2166704 24.5898725,15.495114 24.4996467,15.8880356 L22.4445548,15.8880356 C22.3751853,16.452525 22.7412268,16.6875923 23.3419762,16.6875923 C23.7108892,16.6875923 24.0442862,16.6124661 24.4147106,16.4429852 L24.2428736,17.4103831 L24.2428736,17.4103831 Z M23.6628293,15.1038321 C23.6687234,15.0225945 23.7720976,14.4092135 23.1822297,14.4092135 C22.8539712,14.4092135 22.6186588,14.6563547 22.5232946,15.1038321 L23.6628293,15.1038321 L23.6628293,15.1038321 Z" id="Fill-340" fill="#000066"></path>
                            <path d="M17.0873816,14.8402944 C17.0873816,15.3320426 17.3291927,15.6714517 17.8778015,15.926493 C18.2980994,16.1216123 18.3635395,16.1792984 18.3635395,16.3559343 C18.3635395,16.5981564 18.1779495,16.7081625 17.7673241,16.7081625 C17.4573525,16.7081625 17.1692951,16.6601653 16.836956,16.5541838 C16.836956,16.5541838 16.7007861,17.4121718 16.6942874,17.4531633 C16.9302044,17.5035455 17.14058,17.5504993 17.7747296,17.5682374 C18.8701337,17.5682374 19.3761234,17.1568324 19.3761234,16.2676909 C19.3761234,15.7331625 19.1645387,15.4193917 18.6443426,15.183281 C18.2092338,14.986373 18.1589069,14.9422513 18.1589069,14.7606965 C18.1589069,14.5503732 18.3316507,14.4429011 18.6670124,14.4429011 C18.8708894,14.4429011 19.1491233,14.4643657 19.4131507,14.5011834 L19.5608066,13.5987755 C19.2920941,13.5565916 18.8843401,13.5232022 18.647063,13.5232022 C17.4857653,13.5232022 17.0836033,14.1213791 17.0873816,14.8402944" id="Fill-341" fill="#000066"></path>
                            <path d="M29.2923422,13.6259044 C29.5807019,13.6259044 29.850019,13.6998381 30.2201411,13.884225 L30.3901645,12.8458746 C30.2375213,12.7868469 29.7023631,12.4408792 29.2489674,12.4408792 C28.5543651,12.4408792 27.9664619,12.7813317 27.5537206,13.3419455 C26.9510065,13.1451866 26.702999,13.5428781 26.3995261,13.9393771 L26.1297556,14.001386 C26.1501584,13.8709587 26.1687477,13.7414257 26.1628535,13.6101041 L25.2089088,13.6101041 C25.0789354,14.8146561 24.8481569,16.0342633 24.6675543,17.2392625 L24.62025,17.5010115 L25.6589797,17.5010115 C25.832328,16.3899199 25.9270877,15.6787557 25.9848201,15.1969945 L26.3759495,14.9832427 C26.4347398,14.7684476 26.6171561,14.6963027 26.9841044,14.7050972 C26.9361956,14.9587969 26.9102009,15.2260611 26.9102009,15.502567 C26.9102009,16.7756866 27.6075236,17.5682374 28.7246907,17.5682374 C29.012597,17.5682374 29.2598489,17.5309725 29.642666,17.4281212 L29.8246289,16.337898 C29.4803503,16.5046959 29.1984893,16.5832504 28.9429252,16.5832504 C28.3393043,16.5832504 27.9740185,16.1436731 27.9740185,15.4176029 C27.9740185,14.3638994 28.5168843,13.6259044 29.2923422,13.6259044" id="Fill-342" fill="#000066"></path>
                            <path d="M38.0824771,12.7166398 L37.8516987,14.0988711 C37.5683263,13.7305444 37.2633421,13.4637274 36.8607266,13.4637274 C36.3369034,13.4637274 35.8600822,13.8554565 35.5478436,14.4323178 C35.1130371,14.3433291 34.6637219,14.1920334 34.6637219,14.1920334 L34.6634196,14.1957599 C34.6980288,13.8733436 34.7126886,13.677181 34.7092126,13.6101041 L33.755419,13.6101041 C33.625899,14.8146561 33.3948183,16.0342633 33.2143668,17.2392625 L33.1666091,17.5010115 L34.205641,17.5010115 C34.3458915,16.6030754 34.453044,15.856584 34.532086,15.2654129 C34.887246,14.9488099 35.0649771,14.6734965 35.4230087,14.6913837 C35.264169,15.0702937 35.1715251,15.5064426 35.1715251,15.95392 C35.1715251,16.926237 35.6699582,17.5682374 36.4250133,17.5682374 C36.8055635,17.5682374 37.0975504,17.4387045 37.3822829,17.1387962 L37.3333162,17.5007134 L38.3156737,17.5007134 L39.106547,12.7166398 L38.0824771,12.7166398 L38.0824771,12.7166398 Z M36.7841028,16.602181 C36.4307563,16.602181 36.2518161,16.3437114 36.2518161,15.8351194 C36.2518161,15.0702937 36.5862711,14.5281632 37.057047,14.5281632 C37.4138695,14.5281632 37.6073183,14.7958746 37.6073183,15.2901568 C37.6073183,16.0615412 37.2672715,16.602181 36.7841028,16.602181 L36.7841028,16.602181 Z" id="Fill-343" fill="#000066"></path>
                            <polyline id="Fill-344" fill="#FFFFFF" points="13.4516009 17.2170526 12.4134757 17.2170526 13.0084821 13.5394497 11.6804859 17.2170526 10.9727351 17.2170526 10.8853809 13.5607653 10.2601481 17.2170526 9.28836985 17.2170526 10.1000994 12.4331281 11.5931317 12.4331281 11.6348441 15.3946477 12.6422895 12.4331281 14.254716 12.4331281 13.4516009 17.2170526"></polyline>
                            <path d="M16.0082997,15.4839345 C15.8994847,15.4714135 15.8514247,15.4679852 15.7766144,15.4679852 C15.1881067,15.4679852 14.8903768,15.6668309 14.8903768,16.0599015 C14.8903768,16.3018256 15.0357657,16.4566987 15.2626147,16.4566987 C15.6854819,16.4566987 15.990315,16.0596034 16.0082997,15.4839345 L16.0082997,15.4839345 Z M16.7633547,17.2170526 L15.903263,17.2170526 L15.9229101,16.814144 C15.6605451,17.1323866 15.3103724,17.2845767 14.8347603,17.2845767 C14.2720961,17.2845767 13.8864075,16.8508127 13.8864075,16.2214823 C13.8864075,15.2737603 14.5574332,14.721941 15.7092096,14.721941 C15.8269413,14.721941 15.977771,14.7325242 16.132379,14.7522001 C16.1644189,14.6234124 16.1728823,14.5687075 16.1728823,14.4990966 C16.1728823,14.2416703 15.9921285,14.1458249 15.5071462,14.1458249 C14.9990407,14.1398625 14.5802541,14.2646256 14.4079637,14.3202249 C14.4189964,14.255831 14.5519924,13.445393 14.5519924,13.445393 C15.069317,13.295737 15.4105729,13.2392433 15.7945991,13.2392433 C16.6861263,13.2392433 17.1582624,13.6344008 17.1575068,14.3802959 C17.1591692,14.5801851 17.1257691,14.8274753 17.0734774,15.1512331 C16.9832517,15.7142319 16.7898028,16.9234048 16.7633547,17.2170526 L16.7633547,17.2170526 Z" id="Fill-345" fill="#FFFFFF"></path>
                            <path d="M30.6888012,12.5619157 L30.5187778,13.6001171 C30.1480512,13.4163264 29.8794898,13.3419455 29.5914323,13.3419455 C28.8162767,13.3419455 28.272504,14.0808348 28.272504,15.1346875 C28.272504,15.8607577 28.637941,16.2994406 29.2415619,16.2994406 C29.4972771,16.2994406 29.7797427,16.2214823 30.1232655,16.0540882 L29.9408493,17.1443114 C29.5586367,17.2470136 29.3112337,17.2845767 29.0234785,17.2845767 C27.9055557,17.2845767 27.2092909,16.4918768 27.2092909,15.2190553 C27.2092909,13.5087434 28.1718502,12.3134331 29.5477552,12.3134331 C30.001151,12.3134331 30.5366114,12.502888 30.6888012,12.5619157" id="Fill-346" fill="#FFFFFF"></path>
                            <path d="M32.3636452,15.4839345 C32.2554347,15.4714135 32.2072236,15.4679852 32.1325645,15.4679852 C31.544359,15.4679852 31.246478,15.6668309 31.246478,16.0599015 C31.246478,16.3018256 31.3917158,16.4566987 31.6184137,16.4566987 C32.0411296,16.4566987 32.346265,16.0596034 32.3636452,15.4839345 L32.3636452,15.4839345 Z M33.1193048,17.2170526 L32.259213,17.2170526 L32.278709,16.814144 C32.016344,17.1323866 31.6661713,17.2845767 31.1910126,17.2845767 C30.6277439,17.2845767 30.2425086,16.8508127 30.2425086,16.2214823 C30.2425086,15.2737603 30.9129298,14.721941 32.0650085,14.721941 C32.1827403,14.721941 32.3332676,14.7325242 32.4877245,14.7522001 C32.5199156,14.6234124 32.528379,14.5687075 32.528379,14.4990966 C32.528379,14.2416703 32.3480786,14.1458249 31.862794,14.1458249 C31.3551418,14.1398625 30.9365064,14.2646256 30.7639138,14.3202249 C30.7747953,14.255831 30.9079425,13.445393 30.9079425,13.445393 C31.4252671,13.295737 31.7662207,13.2392433 32.1502469,13.2392433 C33.0417741,13.2392433 33.5143636,13.6344008 33.5131546,14.3802959 C33.5152704,14.5801851 33.481568,14.8274753 33.4292763,15.1512331 C33.3393529,15.7142319 33.145904,16.9234048 33.1193048,17.2170526 L33.1193048,17.2170526 Z" id="Fill-347" fill="#FFFFFF"></path>
                            <path d="M21.3774123,17.1580249 C21.0934354,17.2462683 20.8717249,17.2845767 20.6317274,17.2845767 C20.1009521,17.2845767 19.8110811,16.983625 19.8110811,16.430166 C19.8038268,16.2575548 19.887705,15.8059037 19.9537496,15.392859 C20.0134467,15.0290041 20.4038205,12.7376572 20.4038205,12.7376572 L21.4359004,12.7376572 L21.315146,13.3264433 L21.8450145,13.3264433 L21.7038573,14.2613462 L21.1723263,14.2613462 C21.0524787,15.0018752 20.8815485,15.9230647 20.8794326,16.0452937 C20.8794326,16.2465244 20.9883988,16.3335753 21.2351972,16.3335753 C21.3535335,16.3335753 21.4449683,16.3220977 21.5152446,16.2967575 L21.3774123,17.1580249" id="Fill-348" fill="#FFFFFF"></path>
                            <path d="M24.5421148,17.1271695 C24.1874082,17.2343435 23.8449432,17.2848748 23.4828311,17.2845767 C22.3272765,17.2838314 21.7254691,16.6883376 21.7254691,15.5489246 C21.7254691,14.2185661 22.4914057,13.2392433 23.5308911,13.2392433 C24.3825195,13.2392433 24.9258387,13.7874852 24.9258387,14.6480073 C24.9258387,14.9331587 24.8880558,15.2114533 24.7988879,15.6045239 L22.7434938,15.6045239 C22.673822,16.1690133 23.0403169,16.4045277 23.6404617,16.4045277 C24.009677,16.4045277 24.3429229,16.3291035 24.7138006,16.1591753 L24.5421148,17.1271695 L24.5421148,17.1271695 Z M23.9619193,14.8198732 C23.9675112,14.7384866 24.0713388,14.1254037 23.4816221,14.1254037 C23.1530613,14.1254037 22.9177489,14.372992 22.8220824,14.8198732 L23.9619193,14.8198732 L23.9619193,14.8198732 Z" id="Fill-349" fill="#FFFFFF"></path>
                            <path d="M17.3860183,14.5563355 C17.3860183,15.0489781 17.6281316,15.3876419 18.1768916,15.6429813 C18.5971895,15.8379515 18.6623273,15.8956377 18.6623273,16.0724226 C18.6623273,16.3149428 18.4768885,16.4243527 18.0659608,16.4243527 C17.7562915,16.4243527 17.4680829,16.3769517 17.1355927,16.2712683 C17.1355927,16.2712683 16.9995739,17.1286601 16.9932264,17.1690553 C17.2289922,17.2200338 17.439519,17.2665404 18.0733662,17.2845767 C19.1690727,17.2845767 19.6750624,16.8733207 19.6750624,15.9841792 C19.6750624,15.4493527 19.4631754,15.1357309 18.9431305,14.9002165 C18.5078705,14.7027122 18.4578459,14.6590377 18.4578459,14.4771848 C18.4578459,14.2668615 18.6304385,14.1586441 18.9661025,14.1586441 C19.1695261,14.1586441 19.4480622,14.181003 19.7119385,14.2176717 L19.8597456,13.3154129 C19.5908819,13.2735271 19.1834302,13.2392433 18.946002,13.2392433 C17.784402,13.2392433 17.3825422,13.8375693 17.3860183,14.5563355" id="Fill-350" fill="#FFFFFF"></path>
                            <path d="M38.6144615,17.2170526 L37.6324062,17.2170526 L37.6810707,16.8549864 C37.396187,17.1550437 37.1043513,17.2845767 36.7238011,17.2845767 C35.9693506,17.2845767 35.4701618,16.6433215 35.4701618,15.6699612 C35.4701618,14.3758242 36.2441084,13.2850047 37.1595145,13.2850047 C37.5621299,13.2850047 37.866963,13.4471817 38.1509399,13.8156575 L38.3812649,12.4331281 L39.4051837,12.4331281 L38.6144615,17.2170526 L38.6144615,17.2170526 Z M37.0827394,16.3180731 C37.5665127,16.3180731 37.905955,15.7777314 37.905955,15.0070923 C37.905955,14.512661 37.7126573,14.2440553 37.3558348,14.2440553 C36.8849078,14.2440553 36.5506039,14.7863348 36.5506039,15.5514586 C36.5506039,16.0606468 36.7296953,16.3180731 37.0827394,16.3180731 L37.0827394,16.3180731 Z" id="Fill-351" fill="#FFFFFF"></path>
                            <path d="M34.0545091,13.3264433 C33.9246868,14.5306973 33.6937572,15.7503044 33.5131546,16.9554527 L33.4658503,17.2170526 L34.5042777,17.2170526 C34.87576,14.8377604 34.9650789,14.3734392 35.5478436,14.4314234 C35.6404875,13.9444452 35.8132313,13.5179851 35.9418446,13.3030409 C35.507038,13.2136051 35.264169,13.4559763 34.9458852,13.916571 C34.9712754,13.717278 35.0170683,13.5239475 35.0084538,13.3264433 L34.0545091,13.3264433" id="Fill-352" fill="#FFFFFF"></path>
                            <path d="M25.50815,13.3264433 C25.3777232,14.5306973 25.1464913,15.7503044 24.966191,16.9554527 L24.9190378,17.2170526 L25.9577675,17.2170526 C26.3294009,14.8377604 26.4184176,14.3734392 27.0002755,14.4314234 C27.0935239,13.9444452 27.2665699,13.5179851 27.394881,13.3030409 C26.9605278,13.2136051 26.7172054,13.4559763 26.3995261,13.916571 C26.424614,13.717278 26.4707092,13.5239475 26.4616413,13.3264433 L25.50815,13.3264433" id="Fill-353" fill="#FFFFFF"></path>
                        </g>
                        <g id="Visa-light">
                            <rect id="Rectangle" stroke="#E9E9E9" fill="#FFFFFF" x="0" y="0" width="49.0052356" height="29" rx="4"></rect>
                            <polyline id="Fill-1" fill="#26337A" points="20.3322677 19.1142676 21.83905 9.89512676 24.2475873 9.89512676 22.7409428 19.1142676 20.3322677 19.1142676"></polyline>
                            <path d="M31.4774698,10.1214085 C31.001245,9.93638028 30.2522621,9.73460563 29.3192363,9.73460563 C26.9379748,9.73460563 25.2617518,10.9856901 25.2478384,12.7771549 C25.2326852,14.1023052 26.4439794,14.8413286 27.3571683,15.2817746 C28.2957043,15.7332488 28.6110293,16.0221596 28.6073099,16.4258451 C28.6008353,17.0432864 27.8581892,17.3262066 27.1656865,17.3262066 C26.2013899,17.3262066 25.6890729,17.1869249 24.8969722,16.8427371 L24.5871575,16.6959671 L24.2503425,18.7595962 C24.8119763,19.0163756 25.8531411,19.2392535 26.9337043,19.2509624 C29.4644318,19.2509624 31.1088329,18.0149906 31.1281189,16.1019437 C31.1367975,15.0511362 30.4949893,14.2546573 29.1050247,13.5970516 C28.2633315,13.1695399 27.7467441,12.8863474 27.7526676,12.453662 C27.7532186,12.0705352 28.1890807,11.6603146 29.1324382,11.6603146 C29.9202685,11.6477887 30.4905811,11.8272347 30.9349841,12.0145775 L31.151262,12.1199577 L31.4774698,10.1214085" id="Fill-2" fill="#26337A"></path>
                            <path d="M34.6845824,15.8457089 C34.8841918,15.3158122 35.6440575,13.2687934 35.6440575,13.2687934 C35.6300063,13.2931643 35.8425648,12.7348122 35.9642039,12.3892629 L36.1267568,13.1843803 C36.1267568,13.1843803 36.5889304,15.3848404 36.6841202,15.8457089 L34.6845824,15.8457089 L34.6845824,15.8457089 Z M37.6559934,9.90452113 L35.7946255,9.90452113 C35.2172874,9.90452113 34.7851447,10.0676291 34.5322235,10.6687324 L30.955372,19.1175352 L33.4851352,19.1175352 C33.4851352,19.1175352 33.8978541,17.9809531 33.9915287,17.7315258 C34.2674552,17.7315258 36.725585,17.7362911 37.0764512,17.7362911 C37.1486356,18.0580141 37.3697351,19.1175352 37.3697351,19.1175352 L39.60525,19.1175352 L37.6559934,9.90452113 L37.6559934,9.90452113 Z" id="Fill-3" fill="#26337A"></path>
                            <path d="M18.3116531,9.90288732 L15.9542235,16.1881268 L15.7017156,14.910493 C15.2624096,13.4384366 13.8948993,11.842892 12.3652495,11.0434178 L14.5219676,19.1062347 L17.0710167,19.1047371 L20.8640084,9.90288732 L18.3116531,9.90288732" id="Fill-4" fill="#26337A"></path>
                            <path d="M13.7658214,9.89662441 L9.88177252,9.89662441 L9.84981298,10.0876432 C12.8720562,10.8513099 14.8717318,12.6946479 15.7017156,14.910493 L14.8576806,10.6744507 C14.7120718,10.09023 14.2888834,9.91704695 13.7658214,9.89662441" id="Fill-5" fill="#ED982D"></path>
                        </g>
                        <g id="Paypal-light" transform="translate(145.620419, 14.500000) scale(1, -1) translate(-145.620419, -14.500000) translate(121.120419, 0.000000)">
                            <rect id="Rectangle" stroke="#E9E9E9" fill="#FFFFFF" x="0.0909750661" y="0.0731429778" width="48.5200352" height="28.7128713" rx="4"></rect>
                            <path d="M29.8549901,16.1511701 C29.7246417,15.3070325 29.0710553,15.3070325 28.4386813,15.3070325 L28.0789935,15.3070325 L28.3313898,16.8831199 C28.3464536,16.978328 28.4297659,17.0483695 28.5275272,17.0483695 L28.6926146,17.0483695 C29.1230102,17.0483695 29.5294266,17.0483695 29.7390907,16.8067109 C29.8645203,16.6620796 29.9023336,16.4474066 29.8549901,16.1511701 M29.5798443,18.3536901 L27.1954529,18.3536901 C27.0322101,18.3536901 26.8935612,18.2366509 26.8680449,18.0777687 L25.9039588,12.0475213 C25.8848985,11.9286629 25.9783558,11.8210232 26.1000962,11.8210232 L27.3236493,11.8210232 C27.4377042,11.8210232 27.5348506,11.90289 27.5526813,12.013865 L27.8262899,13.7236681 C27.8514987,13.8825503 27.990455,13.9995895 28.1533905,13.9995895 L28.9078124,13.9995895 C30.4784488,13.9995895 31.3850463,14.7491255 31.6217639,16.2351594 C31.7284405,16.884636 31.6260678,17.3952422 31.3177201,17.7527272 C30.9786299,18.1456878 30.3776133,18.3536901 29.5798443,18.3536901" id="Shape" fill="#0079C1"></path>
                            <path d="M12.8483091,16.1511701 C12.7179608,15.3070325 12.0643744,15.3070325 11.4320003,15.3070325 L11.0723126,15.3070325 L11.3247089,16.8831199 C11.3397727,16.978328 11.423085,17.0483695 11.5208463,17.0483695 L11.6859337,17.0483695 C12.1163293,17.0483695 12.5227456,17.0483695 12.7324098,16.8067109 C12.8578393,16.6620796 12.8956527,16.4474066 12.8483091,16.1511701 M12.5731634,18.3536901 L10.188772,18.3536901 C10.0255291,18.3536901 9.88688026,18.2366509 9.86136396,18.0777687 L8.8972779,12.0475213 C8.87821753,11.9286629 8.97136742,11.8210232 9.09341531,11.8210232 L10.232119,11.8210232 C10.3950545,11.8210232 10.5337033,11.9380624 10.5592196,12.0966414 L10.8196089,13.7236681 C10.8448178,13.8825503 10.9837741,13.9995895 11.1467096,13.9995895 L11.9011315,13.9995895 C13.4717679,13.9995895 14.3783654,14.7491255 14.6150829,16.2351594 C14.7217595,16.884636 14.6193869,17.3952422 14.3110392,17.7527272 C13.971949,18.1456878 13.3709323,18.3536901 12.5731634,18.3536901" id="Shape" fill="#00457C"></path>
                            <path d="M18.1087574,13.9863089 C17.9983917,13.3428966 17.4806873,12.9108218 16.8200301,12.9108218 C16.488933,12.9108218 16.2236248,13.0160358 16.0533112,13.2149418 C15.8845346,13.4120285 15.8208976,13.6931045 15.8743896,14.0057144 C15.9770697,14.6436689 16.503382,15.0893881 17.1538941,15.0893881 C17.4782279,15.0893881 17.7413841,14.9832645 17.9150794,14.7825393 C18.0900045,14.580298 18.1588677,14.2977059 18.1087574,13.9863089 M19.6999913,16.1782165 L18.5582133,16.1782165 C18.4604521,16.1782165 18.3771398,16.1081749 18.3617685,16.0126636 L18.3116582,15.6979313 L18.232035,15.8119384 C17.9845575,16.1657849 17.4333438,16.2843401 16.8830523,16.2843401 C15.6216859,16.2843401 14.5441599,15.3413559 14.3344958,14.0190556 C14.2253597,13.3592699 14.3803021,12.7288956 14.7596651,12.2889374 C15.1079781,11.884758 15.6050849,11.7164763 16.1974937,11.7164763 C17.2144569,11.7164763 17.7782751,12.360495 17.7782751,12.360495 L17.7272425,12.047582 C17.7081821,11.9287235 17.801332,11.8210838 17.9236873,11.8210838 L18.9517179,11.8210838 C19.1149607,11.8210838 19.2536096,11.9378198 19.2791259,12.096702 L19.8964361,15.9517184 C19.9154965,16.0705768 19.8220392,16.1782165 19.6999913,16.1782165" id="Shape" fill="#00457C"></path>
                            <path d="M35.1154691,13.9863089 C35.0051034,13.3428966 34.487399,12.9108218 33.8267418,12.9108218 C33.4956446,12.9108218 33.2303365,13.0160358 33.0600229,13.2149418 C32.8909389,13.4120285 32.8276093,13.6931045 32.8811013,14.0057144 C32.9837814,14.6436689 33.5100936,15.0893881 34.1606058,15.0893881 C34.4849396,15.0893881 34.7480957,14.9832645 34.9217911,14.7825393 C35.0967161,14.580298 35.1655794,14.2977059 35.1154691,13.9863089 M36.706703,16.1782165 L35.564925,16.1782165 C35.4671637,16.1782165 35.3838515,16.1081749 35.3684802,16.0126636 L35.3183698,15.6979313 L35.2384392,15.8119384 C34.9912692,16.1657849 34.4400555,16.2843401 33.889764,16.2843401 C32.6283976,16.2843401 31.5508716,15.3413559 31.3412074,14.0190556 C31.2320714,13.3592699 31.3870138,12.7288956 31.7663768,12.2889374 C32.1146897,11.884758 32.6117966,11.7164763 33.2042054,11.7164763 C34.2211686,11.7164763 34.7849868,12.360495 34.7849868,12.360495 L34.7339542,12.047582 C34.7148938,11.9287235 34.8080437,11.8210838 34.930399,11.8210838 L35.9584295,11.8210838 C36.1216724,11.8210838 36.2603213,11.9378198 36.2858376,12.096702 L36.9031478,15.9517184 C36.9222082,16.0705768 36.8287508,16.1782165 36.706703,16.1782165" id="Shape" fill="#0079C1"></path>
                            <path d="M25.7810809,16.1781862 L24.6334619,16.1781862 C24.523711,16.1781862 24.4210309,16.1245179 24.3595458,16.0347677 L22.776305,13.7352204 L22.1055028,15.9450174 C22.0633855,16.0832813 21.9342669,16.1781862 21.7879324,16.1781862 L20.6599886,16.1781862 C20.5237991,16.1781862 20.4278824,16.0459865 20.4718442,15.9189413 L21.7353626,12.2604053 L20.546856,10.6063929 C20.4537061,10.4766189 20.5477783,10.2971183 20.7091766,10.2971183 L21.855566,10.2971183 C21.9640871,10.2971183 22.0658449,10.3495737 22.1279449,10.4375047 L25.9443238,15.8704277 C26.0356291,16.0005049 25.941557,16.1781862 25.7810809,16.1781862" id="Shape" fill="#00457C"></path>
                            <path d="M38.0524269,18.1879856 L37.0738919,12.0473697 C37.0548315,11.9285113 37.1479814,11.8208716 37.2700293,11.8208716 L38.2544054,11.8208716 C38.4173409,11.8208716 38.5562971,11.9379108 38.581506,12.096793 L39.5465144,18.1270403 C39.5655747,18.2458988 39.4724248,18.3535385 39.3500695,18.3535385 L38.2488717,18.3535385 C38.150803,18.3535385 38.0674907,18.2834969 38.0524269,18.1879856" id="Shape" fill="#0079C1"></path>
                        </g>
                    </g>
                </g>
            </g>
        </g>
    </g>
</svg>